# xmcd
#
# Track frame offsets: 
#        150
#        8919
#        19173
#        28452
#        40021
#        48855
#        58301
#        69564
#        79603
#        90861
#        98114
#        109102
#        118388
#        127839
#        140203
#        150039
#        159793
#        169062
#        178456
#        187956
#        198323
#        209857
#        220702
#        229213
#        237920
#        247006
#        254987
#        264682
#
# Disc length: 3706 seconds
#
# Revision: 1
# Processed by: cddbd v1.5.2PL0 Copyright (c) Steve Scherf et al.
# Submitted via: ExactAudioCopyFreeDBPlugin 1.0
#
DISCID=930e781c
DTITLE=Various Artist - By the Bayou [Ace Records]
DYEAR=2014
DGENRE=Rhythm and Blues
TTITLE0=Gene Dunlap and Jokers - Made in the Shade
TTITLE1=Gene King and His Mecaton Band - T.V. Show
TTITLE2=Pee Wee Trahan - Baby Hurry Home
TTITLE3=(unknown artist) - Can't Stand This Living Alone
TTITLE4=Guitar Jeff and The Creoles - Jump and Shout
TTITLE5=Joe Carl - You're Too Hot to Handle
TTITLE6=Jimmy Dart and Gene Dunlap and The Jokers - Please Don't Doubt M
TTITLE6=y Love
TTITLE7=Bobby Wheeler and His B-Bops - Rock and Roll Baby
TTITLE8=Larry Hart - Freight Train
TTITLE9=Arnold Broussard - Somebody Knocked at My Door
TTITLE10=Johnny Bass - Don't Move Too Slow
TTITLE11=Mickey Gilley - My Baby's Cheatin' on Me
TTITLE12=Shelby Martin - This Kind of Livin'
TTITLE13=Vorris Le Blanc and All The Sugar Bee's - Kaw-Liga
TTITLE14=Gene Rodrigue - Little Cajun Girl
TTITLE15=Norman Wood - Black Lake Boogie
TTITLE16=Pee Wee Trahan - Keeping All My Loving
TTITLE17=Arnold Broussard - Has Anyone Seen Spider?
TTITLE18=Warren Storm - Hey Ma Ma
TTITLE19=Peto Marlow and The Rhythm Kings - Girls Girls Girls (Lucy Luci
TTITLE19=lle)
TTITLE20=Frankie Lowerly - Little Girl
TTITLE21=Rick Johnson - Me and My Baby
TTITLE22=(unknown artist) - John (Don't Love Me No More)
TTITLE23=Erwin Babin - Big Boy Blue
TTITLE24=Johnny Bass - Boppin' It
TTITLE25=Gene Dunlap and Jokers - Because I Love Her
TTITLE26=Paul Marvin - Cinderella
TTITLE27=Warren Storm and The Miller House Band - Crowley Stomp
EXTD=
EXTT0=
EXTT1=
EXTT2=
EXTT3=
EXTT4=
EXTT5=
EXTT6=
EXTT7=
EXTT8=
EXTT9=
EXTT10=
EXTT11=
EXTT12=
EXTT13=
EXTT14=
EXTT15=
EXTT16=
EXTT17=
EXTT18=
EXTT19=
EXTT20=
EXTT21=
EXTT22=
EXTT23=
EXTT24=
EXTT25=
EXTT26=
EXTT27=
PLAYORDER=
